# xmcd CD database file
#
# Track frame offsets:
#	182
#	32230
#	63940
#	95220
#	132710
#	173665
#	205190
#	236952
#	279272
#	323385
#
# Disc length: 4656 seconds
#
# Revision: 0
# Processed by: cddbd v1.5.2PL0 Copyright (c) Steve Scherf et al.
# Submitted via: CDex 1.70beta2
#
DISCID=8f122e0a
DTITLE=Felice Reggio - Three for Chet
DYEAR=1994
DGENRE=Jazz
TTITLE0=Dee's Dilemma
TTITLE1=Line for Lyons
TTITLE2=Leaving
TTITLE3=In Your Own Sweet Way
TTITLE4=You Can't Go Home Again
TTITLE5=Mr. B
TTITLE6=Shiftin' Down
TTITLE7=My Funny Valentine
TTITLE8=Portrait in Black and White
TTITLE9=Ray's Idea
EXTD=YEAR: 1994
EXTT0=
EXTT1=
EXTT2=
EXTT3=
EXTT4=
EXTT5=
EXTT6=
EXTT7=
EXTT8=
EXTT9=
PLAYORDER=
